<svg width="119" height="25" viewBox="0 0 119 25" fill="none" xmlns="http://www.w3.org/2000/svg">
<path d="M17.5774 0.5L15.7583 4.67397H11.5876L12.6802 2.1675C12.8962 1.67182 13.2514 1.2501 13.7025 0.953941C14.1535 0.657783 14.6808 0.500034 15.2198 0.5L17.5774 0.5Z" fill="#FFB715"/>
<path d="M24.1933 4.39779L22.5259 8.22393C22.3099 8.71961 21.9546 9.14133 21.5036 9.43749C21.0525 9.73365 20.5253 9.8914 19.9863 9.89143H16.6016L18.8754 4.67397H16.7963L18.6162 0.5H21.6537C23.6527 0.5 24.9944 2.55951 24.1933 4.39779Z" fill="#FFB715"/>
<path d="M11.7933 16.1514L8.45436 23.8134C8.36575 24.0173 8.21981 24.1907 8.03442 24.3126C7.84903 24.4344 7.63226 24.4993 7.41067 24.4993H3.61048C3.53959 24.4993 3.46981 24.4816 3.40746 24.4477C3.3451 24.4139 3.29212 24.365 3.2533 24.3055C3.21448 24.2459 3.19104 24.1776 3.1851 24.1067C3.17915 24.0358 3.1909 23.9645 3.21926 23.8993L6.59602 16.1514H11.7933Z" fill="#FFB715"/>
<path d="M14.3939 19.7256L16.4061 15.1092H7.05026L9.32407 9.89175H7.24153L5.26884 14.4233C5.18039 14.6269 5.03472 14.8002 4.84966 14.9221C4.66461 15.0439 4.44818 15.1089 4.22688 15.1092H0.426687C0.355783 15.1092 0.286004 15.0914 0.223651 15.0575C0.161299 15.0236 0.108337 14.9747 0.0695471 14.9151C0.0307577 14.8555 0.00736267 14.7872 0.00147461 14.7163C-0.00441344 14.6453 0.00739092 14.5741 0.0358218 14.5089L3.14091 7.38458C3.35713 6.88876 3.7127 6.467 4.16408 6.17095C4.61545 5.8749 5.14304 5.71741 5.68223 5.71777H16.3413L14.0699 10.9352H19.1844C21.1834 10.9352 22.5251 12.9944 21.724 14.833L19.6283 19.6411C19.5397 19.8448 19.3938 20.0181 19.2086 20.1399C19.0233 20.2617 18.8067 20.3266 18.5853 20.3267H14.7847C14.7137 20.3268 14.6438 20.3091 14.5813 20.2752C14.5188 20.2413 14.4658 20.1922 14.4269 20.1325C14.3881 20.0728 14.3648 20.0044 14.359 19.9333C14.3532 19.8622 14.3652 19.7908 14.3939 19.7256Z" fill="#FFB715"/>
<path d="M32.245 19.9576C32.1549 20.1639 31.988 20.2671 31.7443 20.2671H30.0235C29.8348 20.2644 29.6532 20.1943 29.5113 20.0692C29.3594 19.9509 29.2562 19.7805 29.2217 19.5906L28.8377 17.6775C28.6788 16.8907 28.2432 16.4972 27.531 16.497H25.7815L24.4322 19.5927C24.3443 19.7873 24.2035 19.9532 24.0261 20.0713C23.8373 20.203 23.6496 20.269 23.463 20.2692H22.1151C21.9286 20.2692 21.7973 20.2032 21.7211 20.0713C21.6448 19.9394 21.6475 19.7798 21.7291 19.5927L25.6367 10.6301C25.7246 10.4352 25.8642 10.2682 26.0403 10.1477C26.2282 10.0134 26.4152 9.94629 26.6013 9.94629H32.5166C33.6112 9.94629 34.38 10.2414 34.823 10.8315C35.2661 11.4217 35.2689 12.2182 34.8313 13.2211C34.2226 14.6182 32.9397 15.4938 30.9826 15.8479C31.2236 15.9537 31.4099 16.1348 31.5416 16.3912C31.6732 16.6477 31.7902 17.0208 31.8926 17.5106L32.2904 19.5906C32.3094 19.7148 32.2937 19.8418 32.245 19.9576ZM26.67 14.459H29.7241C30.2158 14.4592 30.7024 14.3587 31.1542 14.1637C31.6162 13.9671 31.9409 13.6529 32.1282 13.2211C32.3156 12.7893 32.265 12.475 31.9764 12.2781C31.6872 12.0813 31.2963 11.983 30.8038 11.9832H27.7497L26.67 14.459Z" fill="#FFB715"/>
<path d="M32.7438 19.6046L37.5315 12.7523C38.8325 10.8858 40.8274 9.95018 43.5161 9.94531H47.3808C47.5575 9.94531 47.6752 10.0124 47.7339 10.1467C47.7925 10.281 47.7831 10.4369 47.7054 10.6145L43.785 19.6046C43.6979 19.798 43.5567 19.9618 43.3785 20.0762C43.1889 20.2033 43.0011 20.2668 42.8151 20.2668H41.4668C41.2709 20.2668 41.1374 20.2033 41.0663 20.0762C40.9951 19.9492 41.0024 19.7868 41.0881 19.5893L41.8788 17.7757H36.781L35.51 19.5893C35.3716 19.7908 35.1886 19.9575 34.9753 20.0762C34.7526 20.2033 34.548 20.2668 34.3616 20.2668H32.9492C32.7628 20.2668 32.6525 20.2128 32.6183 20.1048C32.5835 20.0129 32.5855 19.911 32.6239 19.8206C32.6583 19.7456 32.6984 19.6734 32.7438 19.6046ZM38.2006 15.7398H42.768L44.4063 11.9833H42.3619C41.9031 11.9833 41.4458 12.1139 40.99 12.3753C40.5335 12.6374 40.1402 12.9975 39.8382 13.4299L38.2006 15.7398Z" fill="#FFB715"/>
<path d="M46.8192 19.0509C46.3029 18.2015 46.4323 16.888 47.2076 15.1103C47.9829 13.3327 48.9993 12.018 50.2569 11.1663C51.5148 10.3148 53.0305 9.8889 54.8042 9.88867H56.403C57.4887 9.88867 58.3249 10.1718 58.9114 10.7381C59.4979 11.3043 59.577 12.0792 59.1488 13.0626C59.0254 13.3458 58.8533 13.5485 58.6324 13.671C58.4116 13.7934 58.2226 13.8551 58.0656 13.856H57.2124C56.7735 13.856 56.5469 13.592 56.5326 13.064C56.5095 12.3062 56.0867 11.9272 55.2644 11.927H53.9882C52.9415 11.927 52.1329 12.1525 51.5626 12.6035C50.9922 13.0545 50.4417 13.8893 49.9111 15.1079C49.3798 16.3267 49.2017 17.1627 49.3768 17.6161C49.5519 18.0694 50.1628 18.2961 51.2095 18.2961H52.6364C53.4588 18.2961 54.2096 17.9171 54.8887 17.159C55.3646 16.6257 55.8249 16.359 56.2696 16.359H57.1227C57.3472 16.359 57.4887 16.443 57.5472 16.6109C57.6056 16.7787 57.5918 16.9611 57.5056 17.158C57.0766 18.1417 56.3234 18.9153 55.246 19.4791C54.1686 20.0428 53.0877 20.325 52.0033 20.3257H50.2538C48.4803 20.3257 47.3355 19.9007 46.8192 19.0509Z" fill="#FFB715"/>
<path d="M57.8413 19.576L61.7489 10.6155C61.8364 10.4211 61.9781 10.2562 62.1567 10.1407C62.3469 10.0109 62.5353 9.94606 62.7219 9.94629H70.9886C71.1751 9.94629 71.3048 10.0134 71.3778 10.1477C71.4508 10.2819 71.4464 10.4428 71.3646 10.6301L71.0697 11.3067C70.9816 11.5012 70.8409 11.667 70.6636 11.7853C70.4744 11.917 70.2867 11.983 70.1005 11.9832H63.8557L62.9423 14.0775H68.3198C68.5062 14.0775 68.6364 14.1434 68.7103 14.2754C68.7842 14.4073 68.7803 14.5669 68.6985 14.754L68.4037 15.4305C68.3156 15.6247 68.175 15.7902 67.9979 15.9081C67.8087 16.0403 67.6209 16.1063 67.4345 16.106H62.0566L61.1307 18.2278H67.3613C67.5429 18.2278 67.67 18.2926 67.7425 18.4222C67.815 18.5519 67.8105 18.7101 67.729 18.897L67.4275 19.5906C67.3389 19.7859 67.1969 19.9519 67.018 20.0692C66.8262 20.2009 66.6373 20.2669 66.4511 20.2671H58.2211C58.0346 20.2671 57.9033 20.2012 57.8271 20.0692C57.7509 19.9373 57.7556 19.7729 57.8413 19.576Z" fill="#FFB715"/>
<path d="M80.6631 19.6046L85.4506 12.7523C86.7521 10.8858 88.747 9.95018 91.4355 9.94531H95.3002C95.4769 9.94531 95.5946 10.0124 95.6533 10.1467C95.7119 10.281 95.7025 10.4369 95.6249 10.6145L91.7048 19.6046C91.6176 19.798 91.4764 19.9618 91.2983 20.0762C91.1091 20.2033 90.9213 20.2668 90.7349 20.2668H89.3869C89.1908 20.2668 89.0572 20.2033 88.986 20.0762C88.9149 19.9492 88.9221 19.7868 89.0079 19.5893L89.7989 17.7757H84.7011L83.4297 19.5893C83.2913 19.7908 83.1083 19.9575 82.895 20.0762C82.6723 20.2033 82.4678 20.2668 82.2814 20.2668H80.869C80.6825 20.2668 80.5722 20.2128 80.5381 20.1048C80.5035 20.0128 80.5055 19.9111 80.5436 19.8206C80.5781 19.7457 80.618 19.6735 80.6631 19.6046ZM86.1197 15.7398H90.6871L92.3254 11.9833H90.2809C89.8222 11.9833 89.3648 12.1139 88.9087 12.3753C88.4523 12.6375 88.0592 12.9976 87.7573 13.4299L86.1197 15.7398Z" fill="#FFB715"/>
<path d="M105.246 19.576L109.153 10.6155C109.241 10.4211 109.382 10.2562 109.561 10.1407C109.751 10.0109 109.94 9.94606 110.126 9.94629H118.393C118.579 9.94629 118.709 10.0134 118.782 10.1477C118.855 10.2819 118.851 10.4428 118.769 10.6301L118.474 11.3067C118.386 11.5012 118.245 11.667 118.068 11.7853C117.879 11.917 117.691 11.983 117.505 11.9832H111.26L110.347 14.0775H115.724C115.911 14.0775 116.041 14.1434 116.115 14.2754C116.189 14.4073 116.185 14.5669 116.103 14.754L115.808 15.4305C115.72 15.6248 115.579 15.7903 115.402 15.9081C115.213 16.0403 115.025 16.1063 114.839 16.106H109.461L108.535 18.2278H114.766C114.948 18.2278 115.075 18.2926 115.148 18.4222C115.22 18.5519 115.216 18.7101 115.134 18.897L114.832 19.5906C114.744 19.7859 114.602 19.9519 114.423 20.0692C114.231 20.2009 114.042 20.2669 113.856 20.2671H105.625C105.439 20.2671 105.308 20.2012 105.231 20.0692C105.155 19.9373 105.16 19.7729 105.246 19.576Z" fill="#FFB715"/>
<path d="M68.7841 19.5755L72.6789 10.6439C72.7672 10.4442 72.9081 10.2725 73.0864 10.1472C73.2712 10.0129 73.456 9.94576 73.6408 9.94576H76.5168C76.6001 9.94233 76.683 9.9588 76.7586 9.99381C76.8343 10.0288 76.9006 10.0814 76.9521 10.1472C77.005 10.2145 77.0432 10.2922 77.0642 10.3754C77.0852 10.4585 77.0885 10.5451 77.074 10.6296L75.3463 16.7772L78.9785 10.631C79.1259 10.4351 79.3107 10.2706 79.5221 10.1472C79.7455 10.0129 79.9493 9.94576 80.1334 9.94576H83.0094C83.1931 9.94576 83.3182 10.0129 83.3847 10.1472C83.4512 10.2814 83.4414 10.447 83.3553 10.6439L79.4605 19.5755C79.3724 19.775 79.2305 19.9458 79.0509 20.0687C78.8638 20.2004 78.679 20.2664 78.4965 20.2666H77.2237C77.0389 20.2666 76.9111 20.2006 76.8401 20.0687C76.7692 19.9367 76.776 19.7723 76.8606 19.5755L79.9269 12.5441L75.4783 19.6189C75.326 19.8037 75.141 19.9587 74.9326 20.076C74.7117 20.2031 74.5096 20.2666 74.3262 20.2666H73.3154C73.1306 20.2666 72.9851 20.2031 72.8788 20.076C72.7718 19.9488 72.7178 19.7851 72.7281 19.6189L74.4606 12.5441L71.3944 19.5755C71.3063 19.775 71.1644 19.9458 70.9848 20.0687C70.7977 20.2004 70.6123 20.2664 70.4286 20.2666H69.1559C68.9722 20.2666 68.8432 20.2006 68.7688 20.0687C68.6945 19.9367 68.6995 19.7723 68.7841 19.5755Z" fill="#FFB715"/>
<path d="M96.4913 11.3067L96.7861 10.6301C96.8732 10.4319 97.0142 10.2622 97.1929 10.1407C97.3589 10.0176 97.559 9.94963 97.7654 9.94629H107.595C107.791 9.94629 107.926 10.0111 107.998 10.1407C108.071 10.2704 108.064 10.4335 107.978 10.6301L107.683 11.3067C107.597 11.5044 107.456 11.6733 107.278 11.7936C107.112 11.9148 106.912 11.9815 106.707 11.9846H103.144L99.8202 19.6063C99.7339 19.799 99.5941 19.9628 99.4176 20.0779C99.2304 20.205 99.0438 20.2685 98.8576 20.2685H97.5024C97.316 20.2685 97.1847 20.205 97.1087 20.0779C97.0327 19.9508 97.0355 19.7936 97.1171 19.6063L100.441 11.9846H96.8773C96.6816 11.9846 96.5468 11.9209 96.4729 11.7936C96.399 11.6663 96.4051 11.504 96.4913 11.3067Z" fill="#FFB715"/>
</svg>
