<svg width="25" height="24" viewBox="0 0 25 24" fill="none" xmlns="http://www.w3.org/2000/svg">
<path d="M12.5 3.17188C17.5469 3.17188 21.7031 7.32812 21.7031 12.375C21.7031 17.459 17.5469 21.5781 12.5 21.5781C7.41602 21.5781 3.29688 17.459 3.29688 12.375C3.29688 7.32812 7.41602 3.17188 12.5 3.17188ZM12.5 19.2031C16.248 19.2031 19.3281 16.1602 19.3281 12.375C19.3281 8.62695 16.248 5.54688 12.5 5.54688C8.71484 5.54688 5.67188 8.62695 5.67188 12.375C5.67188 16.1602 8.71484 19.2031 12.5 19.2031ZM12.5 7.625C15.0977 7.625 17.25 9.77734 17.25 12.375C17.25 15.0098 15.0977 17.125 12.5 17.125C9.86523 17.125 7.75 15.0098 7.75 12.375C7.75 9.77734 9.86523 7.625 12.5 7.625ZM12.5 14.75C13.7988 14.75 14.875 13.7109 14.875 12.375C14.875 11.0762 13.7988 10 12.5 10C11.1641 10 10.125 11.0762 10.125 12.375C10.125 13.7109 11.1641 14.75 12.5 14.75Z" fill="#8E9BC3"/>
</svg>
